<svg xmlns="http://www.w3.org/2000/svg" xmlns:xlink="http://www.w3.org/1999/xlink" viewBox="0 0 1151.99 1040.18"><defs><style>.cls-1{fill:url(#åçûìßííûé_ãðàäèåíò_58);}.cls-2{fill:url(#åçûìßííûé_ãðàäèåíò_3);}.cls-3{fill:url(#åçûìßííûé_ãðàäèåíò_9);}.cls-4{fill:url(#åçûìßííûé_ãðàäèåíò_4);}.cls-5{fill:url(#åçûìßííûé_ãðàäèåíò_4-2);}.cls-6{fill:url(#åçûìßííûé_ãðàäèåíò_2);}.cls-7{fill:url(#åçûìßííûé_ãðàäèåíò_42);}</style><linearGradient id="åçûìßííûé_ãðàäèåíò_58" x1="488.58" y1="-15.44" x2="495.9" y2="1085.33" gradientUnits="userSpaceOnUse"><stop offset="0" stop-color="#5dcc25"/><stop offset="1" stop-color="#279436"/></linearGradient><linearGradient id="åçûìßííûé_ãðàäèåíò_3" x1="-436.9" y1="49.33" x2="-432.76" y2="1008.11" gradientTransform="translate(926.41)" gradientUnits="userSpaceOnUse"><stop offset="0" stop-color="#279436"/><stop offset="1" stop-color="#5dcc25"/></linearGradient><linearGradient id="åçûìßííûé_ãðàäèåíò_9" x1="-435.96" y1="106.21" x2="-435.96" y2="941.34" gradientTransform="translate(926.41)" gradientUnits="userSpaceOnUse"><stop offset="0" stop-color="#285910"/><stop offset="1" stop-color="#09210c"/></linearGradient><linearGradient id="åçûìßííûé_ãðàäèåíò_4" x1="387.45" y1="724.82" x2="779.47" y2="22.94" gradientUnits="userSpaceOnUse"><stop offset="0" stop-color="#a7d63f"/><stop offset="0.07" stop-color="#9fd440"/><stop offset="1" stop-color="#39b54a"/></linearGradient><linearGradient id="åçûìßííûé_ãðàäèåíò_4-2" x1="883.16" y1="62.18" x2="1116.64" y2="236.25" xlink:href="#åçûìßííûé_ãðàäèåíò_4"/><linearGradient id="åçûìßííûé_ãðàäèåíò_2" x1="317.4" y1="318.73" x2="492.44" y2="557.33" gradientUnits="userSpaceOnUse"><stop offset="0" stop-color="#4fad1f"/><stop offset="1" stop-color="#20782c"/></linearGradient><linearGradient id="åçûìßííûé_ãðàäèåíò_42" x1="1115.65" y1="214.07" x2="506.92" y2="762.95" gradientUnits="userSpaceOnUse"><stop offset="0" stop-color="#20782c"/><stop offset="1" stop-color="#4fad1f"/></linearGradient></defs><title>Asset 2</title><g id="Layer_2" data-name="Layer 2"><g id="_ëîé_1" data-name="‘ëîé_1"><path class="cls-1" d="M457.55,1027.64c-68.4-26.07-132.35-65.49-190.07-117.14-55.22-49.42-103.59-109-143.78-177.07C84.06,666.26,53.3,592.34,32.28,513.74A959.39,959.39,0,0,1,0,265.93,974.67,974.67,0,0,1,8.66,136.59L23.25,28,127.82,60.75A396.16,396.16,0,0,0,246.36,78.82c68.83,0,137.47-18.3,198.51-52.94L490.47,0l45.59,25.89c.67.38,1.35.74,2,1.11l.21.11,2.89,1.57C600.94,61.49,667.8,78.82,734.54,78.82A396.11,396.11,0,0,0,853.08,60.75L957.65,28l14.59,108.61a974.56,974.56,0,0,1,8.66,129.34,960,960,0,0,1-31.71,245.69c-20.66,78-50.9,151.36-89.88,218.18-39.48,67.68-87,127.09-141.39,176.6-56.75,51.7-119.68,91.5-187,118.28l-1.64.66c-1.91.76-3.89,1.55-5.87,2.3l-32.92,12.54Z"/><path class="cls-2" d="M479.48,970.11c-61.33-23.39-118.84-58.88-170.94-105.5-50.5-45.19-94.85-99.86-131.81-162.48-36.8-62.36-65.39-131.09-85-204.3a897.89,897.89,0,0,1-30.19-231.9,912.07,912.07,0,0,1,8.12-121.14l4.86-36.21,34.86,10.92a457.36,457.36,0,0,0,137,20.9c79.47,0,158.62-21.08,228.9-61l15.2-8.62,15.2,8.63c1.12.64,2.27,1.25,3.41,1.87l2.5,1.35c68.79,37.77,145.9,57.74,223,57.74a457.26,457.26,0,0,0,137-20.9l34.86-10.92,4.86,36.2a912.22,912.22,0,0,1,8.12,121.15,897.85,897.85,0,0,1-29.67,229.92c-19.23,72.61-47.34,140.88-83.54,202.93-36.33,62.27-80,116.81-129.67,162.1-51.24,46.69-107.88,82.55-168.33,106.58l-1.73.69c-1.65.67-3.31,1.33-5,2l-11,4.18Z"/><path class="cls-3" d="M880.7,148.88a487.13,487.13,0,0,1-146.16,22.31c-82.82,0-164.37-21.23-237.79-61.54-2.1-1.15-4.21-2.26-6.3-3.44-75,42.58-158.9,65-244.09,65A487.18,487.18,0,0,1,100.2,148.88a880.4,880.4,0,0,0-7.84,117.05c0,310.56,163,585.78,398.09,675.41,2.11-.8,4.2-1.65,6.3-2.49,231.7-92.11,391.79-365.15,391.79-672.92A880.17,880.17,0,0,0,880.7,148.88Z"/><polygon class="cls-4" points="1073.61 229.62 851.43 76.73 467.02 566.68 282.43 335.08 153.91 409.66 468.21 754.75 468.21 754.75 1073.61 229.62"/><polygon class="cls-5" points="929.82 71.51 851.43 76.73 1073.61 229.62 1151.99 224.4 929.82 71.51"/><polygon class="cls-6" points="360.81 329.86 282.43 335.08 467.02 566.68 507.97 514.49 360.81 329.86"/><polygon class="cls-7" points="468.21 754.75 546.6 749.53 1151.99 224.4 1073.61 229.62 468.21 754.75"/></g></g></svg>